REM Ripping Tool: trurip

FILE "Hatsukoi Monogatari (1994)(Tokumashoten Intermedia)(JP).img" BINARY
  TRACK 01 AUDIO
    INDEX 01 00:00:00
  TRACK 02 MODE1/2352
    INDEX 00 01:00:21
    INDEX 01 01:03:21
  TRACK 03 AUDIO
    INDEX 00 29:27:39
    INDEX 01 29:29:39
  TRACK 04 AUDIO
    INDEX 01 47:27:65
  TRACK 05 AUDIO
    INDEX 01 51:26:15
  TRACK 06 AUDIO
    INDEX 01 53:59:07

REM DISC HASHES
REM CRC32 : e0379966
REM MD5   : 071832f24808f86073f2adeb60c7ad6f
REM SHA1  : 0056127f749a06a24ac7bd7029680e50617e7014

REM Gap Append Method: Prev [crc32]
REM Trk 01: acfa1789
REM Trk 02: 7303c6f5
REM Trk 03: 4f6e71ff
REM Trk 04: 62cd8e94
REM Trk 05: 4a058862
REM Trk 06: ed651574

REM Gap Append Method: Prev [md5]
REM Trk 01: 463f1b69b8960368764393373e934edd
REM Trk 02: 3fff68a49d0a41afdadf7923fc25725f
REM Trk 03: f8fdcab68e8c0b84593de505f9b20fd6
REM Trk 04: 130904980d3aedb56abf7c5304b86623
REM Trk 05: 7b9847a34682f2429d9ddd8785868bed
REM Trk 06: 0db336f65924f985d9bd59bf0c9e31ca

REM Gap Append Method: Prev [sha1]
REM Trk 01: 60c9949e260542d6c8a7a587da55223688ad6305
REM Trk 02: 49dac7135560b82318e000259f7f384c2e3d63cb
REM Trk 03: b578b85a37a133752c512d6c2301bc7f39b61090
REM Trk 04: c60b507404180f5c081da954d0aaaf5849cc420f
REM Trk 05: 2ca1277d87afe26197a16e6ebad0e9a44a2e9fff
REM Trk 06: 86af5b97c50ac46bb13d989a791f573fbbbd6480

REM Gap Append Method: None [crc32]
REM Trk 01: c3008c68
REM Trk 02: 87ba86e8
REM Trk 03: 4f6e71ff
REM Trk 04: 62cd8e94
REM Trk 05: 4a058862
REM Trk 06: ed651574
REM Gap 02: e1351c28
REM Gap 03: 7abe247f

REM Gap Append Method: None [md5]
REM Trk 01: d4d3ea14837f40f0a075dabb3058d98d
REM Trk 02: 5380c5b8927bb599e7acc17903b7f55a
REM Trk 03: f8fdcab68e8c0b84593de505f9b20fd6
REM Trk 04: 130904980d3aedb56abf7c5304b86623
REM Trk 05: 7b9847a34682f2429d9ddd8785868bed
REM Trk 06: 0db336f65924f985d9bd59bf0c9e31ca
REM Gap 02: 9537342dd4c5c40dc4df670ff7c7a7b9
REM Gap 03: 9df204fbc98bb8965081cb30a89715fc

REM Gap Append Method: None [sha1]
REM Trk 01: a53f0768f7d58d53b79d1d22a5c73c709f64cabe
REM Trk 02: 6db1c84b76e180894ba1a0d93c75679698f70963
REM Trk 03: b578b85a37a133752c512d6c2301bc7f39b61090
REM Trk 04: c60b507404180f5c081da954d0aaaf5849cc420f
REM Trk 05: 2ca1277d87afe26197a16e6ebad0e9a44a2e9fff
REM Trk 06: 86af5b97c50ac46bb13d989a791f573fbbbd6480
REM Gap 02: e32fd707834facbd422da37260692acfb281ed4c
REM Gap 03: cbe29e0bd725ef1194f8c47619dd42078e841de2

REM Gap Append Method: Next [crc32]
REM Trk 01: c3008c68
REM Trk 02: 1f7cb2cf
REM Trk 03: 5ad2d8eb
REM Trk 04: 62cd8e94
REM Trk 05: 4a058862
REM Trk 06: ed651574

REM Gap Append Method: Next [md5]
REM Trk 01: d4d3ea14837f40f0a075dabb3058d98d
REM Trk 02: 2a5b3979fd8f80daea410c8d33aa45a8
REM Trk 03: 52b545ddbbefb48a889e9a724195ea35
REM Trk 04: 130904980d3aedb56abf7c5304b86623
REM Trk 05: 7b9847a34682f2429d9ddd8785868bed
REM Trk 06: 0db336f65924f985d9bd59bf0c9e31ca

REM Gap Append Method: Next [sha1]
REM Trk 01: a53f0768f7d58d53b79d1d22a5c73c709f64cabe
REM Trk 02: 7b86ea4730edcdbd00b047ad679280b6e9e03609
REM Trk 03: dd89e20ff13bf342d222a839e7148be0c075c164
REM Trk 04: c60b507404180f5c081da954d0aaaf5849cc420f
REM Trk 05: 2ca1277d87afe26197a16e6ebad0e9a44a2e9fff
REM Trk 06: 86af5b97c50ac46bb13d989a791f573fbbbd6480

